# xmcd
#
# Track frame offsets:
#	150
#	4703
#	16309
#	29141
#	52439
#	67825
#	86479
#	94578
#	108305
#	153819
#	179221
#
# Disc length: 3036 seconds
#
# Revision: 0
# Processed by: cddbd v1.5.1PL2 Copyright (c) Steve Scherf et al.
# Submitted via: EasyCDDAExtractor 9.0.0.1
#
DISCID=8a0bda0b
DTITLE=Garcia/Saunders - Keystone Berkley 12-28-1972
DYEAR=1972
DGENRE=Blues
TTITLE0=Intro
TTITLE1=Tuning Jam
TTITLE2=Space
TTITLE3=Jam
TTITLE4=Bo Diddley
TTITLE5=You Can't Judge A Book/Gypsy Woman
TTITLE6=Jam
TTITLE7=Expressway To Your Heart
TTITLE8=Space
TTITLE9=Space - Continued
TTITLE10=Georgia On My Mind
EXTD=
EXTT0=
EXTT1=
EXTT2=
EXTT3=
EXTT4=
EXTT5=
EXTT6=
EXTT7=
EXTT8=
EXTT9=
EXTT10=
PLAYORDER=
